<mxfile host="app.diagrams.net" modified="2023-04-13T16:42:18.842Z" agent="Mozilla/5.0 (Macintosh; Intel Mac OS X 10_15_7) AppleWebKit/605.1.15 (KHTML, like Gecko) Version/16.3 Safari/605.1.15" etag="gKN7kobsYmzxjOif_QaJ" version="21.1.7" type="github">
  <diagram name="Page-1" id="71mnN-PuKCtRGTd7kYbZ">
    <mxGraphModel dx="754" dy="435" grid="1" gridSize="10" guides="1" tooltips="1" connect="1" arrows="1" fold="1" page="1" pageScale="1" pageWidth="827" pageHeight="1169" math="0" shadow="0">
      <root>
        <mxCell id="0" />
        <mxCell id="1" parent="0" />
        <mxCell id="m7d4Oc6UrYmVxNIomJw_-2" value="" style="rounded=1;whiteSpace=wrap;html=1;" vertex="1" parent="1">
          <mxGeometry x="170" y="250" width="380" height="320" as="geometry" />
        </mxCell>
        <mxCell id="m7d4Oc6UrYmVxNIomJw_-3" value="Segmentation" style="rounded=1;whiteSpace=wrap;html=1;" vertex="1" parent="1">
          <mxGeometry x="320" y="260" width="110" height="30" as="geometry" />
        </mxCell>
        <mxCell id="m7d4Oc6UrYmVxNIomJw_-4" value="Sentiment" style="rounded=1;whiteSpace=wrap;html=1;fontSize=10;" vertex="1" parent="1">
          <mxGeometry x="180" y="310" width="50" height="30" as="geometry" />
        </mxCell>
        <mxCell id="m7d4Oc6UrYmVxNIomJw_-5" value="Emotions" style="rounded=1;whiteSpace=wrap;html=1;fontSize=10;" vertex="1" parent="1">
          <mxGeometry x="240" y="310" width="50" height="30" as="geometry" />
        </mxCell>
        <mxCell id="m7d4Oc6UrYmVxNIomJw_-6" value="Topics" style="rounded=1;whiteSpace=wrap;html=1;fontSize=10;" vertex="1" parent="1">
          <mxGeometry x="300" y="310" width="40" height="30" as="geometry" />
        </mxCell>
        <mxCell id="m7d4Oc6UrYmVxNIomJw_-7" value="Reflective level" style="rounded=1;whiteSpace=wrap;html=1;fontSize=10;" vertex="1" parent="1">
          <mxGeometry x="350" y="310" width="50" height="30" as="geometry" />
        </mxCell>
        <mxCell id="m7d4Oc6UrYmVxNIomJw_-8" value="Gibbs cycle" style="rounded=1;whiteSpace=wrap;html=1;fontSize=10;" vertex="1" parent="1">
          <mxGeometry x="414" y="310" width="60" height="30" as="geometry" />
        </mxCell>
        <mxCell id="m7d4Oc6UrYmVxNIomJw_-10" value="Linguistic analysis" style="ellipse;whiteSpace=wrap;html=1;fontSize=10;" vertex="1" parent="1">
          <mxGeometry x="480" y="310" width="60" height="30" as="geometry" />
        </mxCell>
      </root>
    </mxGraphModel>
  </diagram>
</mxfile>
